<svg width="114" height="48" viewBox="0 0 114 48" fill="none" xmlns="http://www.w3.org/2000/svg">
<g clip-path="url(#clip0_2_141)">
<path d="M98.7657 31.3333C98.3648 32 97.2956 33.3333 95.4245 33.3333H87.6729C85.8019 33.3333 84.7327 32 84.3317 31.3333L73.7736 10C72.7044 8 70.566 7.33333 68.8286 7.33333H49.5833C47.8459 7.33333 46.7767 8.4 46.7767 10.1333C46.7767 11.8667 47.9796 12.9333 49.5833 12.9333H62.8145C68.4277 12.9333 73.1053 16.2667 73.1053 23.0667C73.1053 29.8667 68.4277 33.2 62.8145 33.2H45.8412C44.3711 33.2 43.0346 32.2667 43.0346 30.4V26.6667C43.0346 26 43.4355 25.7333 43.9701 25.7333H58.9387C60.5424 25.7333 61.7453 24.8 61.7453 22.9333C61.7453 21.0667 60.5424 20.1333 58.9387 20.1333H44.772C42.3663 20.1333 40.228 19.4667 38.7579 18.5333C37.956 27.6 31.5409 33.2 22.0519 33.2H0.935535C0.400943 33.2 0 32.9333 0 32.2667V14C0 13.3333 0.400943 13.0667 0.935535 13.0667H8.41981C10.4245 13.0667 11.2264 14.2667 11.2264 15.8667V25.2C11.2264 25.8667 11.6274 26.1333 12.1619 26.1333C14.1667 26.1333 18.577 26.1333 18.577 26.1333C23.6557 26.1333 27.9324 23.0667 27.9324 16.9333C27.9324 10.6667 23.7893 7.73333 18.577 7.73333H0.935535C0.534591 7.46667 0 7.2 0 6.53333V2.8C0 0.666666 1.47013 0 2.8066 0H22.1855C27.6651 0 32.6101 2 35.4167 5.73333C37.0204 2 40.4953 0 44.9057 0H72.5707C75.9119 0 79.7877 1.2 81.7924 5.06667L90.8805 23.8667C91.0141 24 91.1478 24.1333 91.4151 24.1333C91.6824 24.1333 91.816 24 91.9497 23.8667C91.9497 23.8667 103.042 0.666667 103.042 0.533333C103.042 0.4 103.31 0.133333 103.844 0.133333H112.398C112.932 0.133333 113.333 0.4 113.333 1.06667C113.333 1.2 113.333 1.33333 113.2 1.46667L98.7657 31.3333Z" fill="white"/>
<path d="M4.06439 41.9333C4.00398 41.7484 3.92434 41.5827 3.82547 41.4363C3.72844 41.288 3.61218 41.1616 3.47671 41.0573C3.34306 40.9529 3.1911 40.8733 3.02083 40.8184C2.85057 40.7634 2.66383 40.736 2.46061 40.736C2.1274 40.736 1.8244 40.822 1.55161 40.9941C1.27882 41.1662 1.06187 41.4198 0.900758 41.7548C0.739647 42.0899 0.659091 42.5009 0.659091 42.9879C0.659091 43.4749 0.740562 43.8859 0.903504 44.2209C1.06645 44.556 1.28706 44.8095 1.56534 44.9816C1.84362 45.1537 2.15669 45.2398 2.50455 45.2398C2.82677 45.2398 3.11054 45.1711 3.35587 45.0338C3.60303 44.8947 3.79527 44.6988 3.93258 44.4461C4.07172 44.1916 4.14129 43.8923 4.14129 43.5481L4.35 43.592H2.65833V42.9879H4.80038V43.592C4.80038 44.0552 4.70152 44.458 4.50379 44.8004C4.30789 45.1427 4.03693 45.4082 3.69091 45.5968C3.34672 45.7835 2.95126 45.8769 2.50455 45.8769C2.00657 45.8769 1.569 45.7597 1.19186 45.5254C0.816541 45.291 0.523611 44.9578 0.313068 44.5257C0.104356 44.0937 0 43.5811 0 42.9879C0 42.543 0.0595012 42.143 0.178504 41.7878C0.299337 41.4308 0.469602 41.1269 0.689299 40.876C0.908996 40.6252 1.16897 40.433 1.46922 40.2993C1.76948 40.1657 2.09994 40.0989 2.46061 40.0989C2.7572 40.0989 3.03365 40.1437 3.28996 40.2334C3.54811 40.3213 3.77787 40.4467 3.97926 40.6097C4.18248 40.7708 4.35183 40.9639 4.48731 41.1891C4.62279 41.4125 4.71616 41.6605 4.76742 41.9333H4.06439Z" fill="white"/>
<path d="M6.52706 40.1757V45.8H5.87895V40.1757H6.52706Z" fill="white"/>
<path d="M9.42775 45.8879C9.04694 45.8879 8.71282 45.7972 8.42538 45.616C8.13977 45.4347 7.91642 45.1812 7.7553 44.8553C7.59602 44.5294 7.51638 44.1486 7.51638 43.7129C7.51638 43.2735 7.59602 42.8899 7.7553 42.5622C7.91642 42.2345 8.13977 41.98 8.42538 41.7988C8.71282 41.6175 9.04694 41.5269 9.42775 41.5269C9.80856 41.5269 10.1418 41.6175 10.4274 41.7988C10.7148 41.98 10.9382 42.2345 11.0974 42.5622C11.2586 42.8899 11.3391 43.2735 11.3391 43.7129C11.3391 44.1486 11.2586 44.5294 11.0974 44.8553C10.9382 45.1812 10.7148 45.4347 10.4274 45.616C10.1418 45.7972 9.80856 45.8879 9.42775 45.8879ZM9.42775 45.3057C9.71702 45.3057 9.95502 45.2315 10.1418 45.0832C10.3285 44.9349 10.4667 44.74 10.5564 44.4983C10.6461 44.2566 10.691 43.9948 10.691 43.7129C10.691 43.4309 10.6461 43.1682 10.5564 42.9247C10.4667 42.6812 10.3285 42.4844 10.1418 42.3343C9.95502 42.1841 9.71702 42.1091 9.42775 42.1091C9.13848 42.1091 8.90047 42.1841 8.71373 42.3343C8.52699 42.4844 8.38876 42.6812 8.29905 42.9247C8.20934 43.1682 8.16449 43.4309 8.16449 43.7129C8.16449 43.9948 8.20934 44.2566 8.29905 44.4983C8.38876 44.74 8.52699 44.9349 8.71373 45.0832C8.90047 45.2315 9.13848 45.3057 9.42775 45.3057Z" fill="white"/>
<path d="M12.4163 45.8V40.1757H13.0644V42.2519H13.1193C13.1669 42.1787 13.2329 42.0853 13.3171 41.9718C13.4031 41.8564 13.5258 41.7539 13.6851 41.6642C13.8462 41.5727 14.064 41.5269 14.3387 41.5269C14.6938 41.5269 15.0069 41.6157 15.2779 41.7933C15.5488 41.9709 15.7603 42.2226 15.9122 42.5485C16.0642 42.8744 16.1402 43.2588 16.1402 43.7019C16.1402 44.1486 16.0642 44.5358 15.9122 44.8635C15.7603 45.1894 15.5497 45.4421 15.2806 45.6215C15.0115 45.7991 14.7012 45.8879 14.3496 45.8879C14.0787 45.8879 13.8617 45.843 13.6988 45.7533C13.5359 45.6618 13.4104 45.5583 13.3226 45.443C13.2347 45.3258 13.1669 45.2288 13.1193 45.1519H13.0424V45.8H12.4163ZM13.0534 43.6909C13.0534 44.0095 13.1001 44.2905 13.1935 44.534C13.2869 44.7757 13.4233 44.9651 13.6027 45.1025C13.7821 45.2379 14.0018 45.3057 14.2618 45.3057C14.5327 45.3057 14.7588 45.2343 14.9401 45.0915C15.1232 44.9468 15.2605 44.7528 15.352 44.5093C15.4454 44.2639 15.4921 43.9912 15.4921 43.6909C15.4921 43.3943 15.4463 43.127 15.3548 42.889C15.265 42.6492 15.1287 42.4597 14.9456 42.3205C14.7643 42.1796 14.5364 42.1091 14.2618 42.1091C13.9981 42.1091 13.7766 42.1759 13.5972 42.3096C13.4178 42.4414 13.2823 42.6263 13.1907 42.8643C13.0992 43.1005 13.0534 43.376 13.0534 43.6909Z" fill="white"/>
<path d="M18.3728 45.8989C18.1055 45.8989 17.863 45.8485 17.6451 45.7478C17.4272 45.6453 17.2542 45.4979 17.1261 45.3057C16.9979 45.1116 16.9338 44.8773 16.9338 44.6026C16.9338 44.361 16.9814 44.1651 17.0766 44.015C17.1718 43.863 17.2991 43.744 17.4584 43.6579C17.6176 43.5719 17.7934 43.5078 17.9856 43.4657C18.1797 43.4218 18.3747 43.387 18.5706 43.3614C18.8269 43.3284 19.0347 43.3037 19.194 43.2872C19.3551 43.2689 19.4722 43.2387 19.5455 43.1966C19.6205 43.1545 19.6581 43.0812 19.6581 42.9769V42.9549C19.6581 42.684 19.5839 42.4734 19.4356 42.3233C19.2892 42.1732 19.0667 42.0981 18.7683 42.0981C18.4589 42.0981 18.2163 42.1658 18.0406 42.3013C17.8648 42.4368 17.7412 42.5814 17.6698 42.7352L17.0547 42.5155C17.1645 42.2592 17.311 42.0597 17.4941 41.9168C17.679 41.7722 17.8804 41.6715 18.0982 41.6148C18.3179 41.5562 18.534 41.5269 18.7463 41.5269C18.8818 41.5269 19.0374 41.5434 19.2132 41.5763C19.3908 41.6074 19.562 41.6724 19.7267 41.7713C19.8933 41.8702 20.0316 42.0194 20.1414 42.2189C20.2513 42.4185 20.3062 42.6858 20.3062 43.0208V45.8H19.6581V45.2288H19.6251C19.5812 45.3203 19.5079 45.4183 19.4054 45.5226C19.3029 45.627 19.1665 45.7158 18.9962 45.789C18.826 45.8622 18.6182 45.8989 18.3728 45.8989ZM18.4717 45.3167C18.728 45.3167 18.9441 45.2663 19.1198 45.1656C19.2974 45.0649 19.4311 44.9349 19.5208 44.7757C19.6123 44.6164 19.6581 44.4489 19.6581 44.2731V43.6799C19.6306 43.7129 19.5702 43.7431 19.4768 43.7705C19.3853 43.7962 19.2791 43.8191 19.1583 43.8392C19.0393 43.8575 18.923 43.874 18.8095 43.8886C18.6978 43.9014 18.6072 43.9124 18.5376 43.9216C18.3692 43.9436 18.2117 43.9793 18.0653 44.0287C17.9206 44.0763 17.8035 44.1486 17.7138 44.2456C17.6259 44.3408 17.5819 44.4708 17.5819 44.6356C17.5819 44.8608 17.6652 45.0311 17.8318 45.1464C18.0003 45.2599 18.2136 45.3167 18.4717 45.3167Z" fill="white"/>
<path d="M22.1372 40.1757V45.8H21.4891V40.1757H22.1372Z" fill="white"/>
<path d="M25.2796 40.7799V40.1757H29.4978V40.7799H27.7292V45.8H27.0481V40.7799H25.2796Z" fill="white"/>
<path d="M30.023 45.8V41.5818H30.6491V42.2189H30.693C30.7699 42.0102 30.9091 41.8409 31.1105 41.7109C31.3119 41.5809 31.5389 41.5159 31.7915 41.5159C31.8391 41.5159 31.8986 41.5168 31.97 41.5186C32.0414 41.5205 32.0954 41.5232 32.1321 41.5269V42.186C32.1101 42.1805 32.0597 42.1722 31.981 42.1613C31.9041 42.1484 31.8226 42.142 31.7366 42.142C31.5316 42.142 31.3485 42.1851 31.1874 42.2711C31.0281 42.3553 30.9018 42.4725 30.8084 42.6226C30.7168 42.7709 30.6711 42.9403 30.6711 43.1307V45.8H30.023Z" fill="white"/>
<path d="M34.1416 45.8989C33.8743 45.8989 33.6317 45.8485 33.4138 45.7478C33.196 45.6453 33.023 45.4979 32.8948 45.3057C32.7667 45.1116 32.7026 44.8773 32.7026 44.6026C32.7026 44.361 32.7502 44.1651 32.8454 44.015C32.9406 43.863 33.0678 43.744 33.2271 43.6579C33.3864 43.5719 33.5621 43.5078 33.7544 43.4657C33.9484 43.4218 34.1434 43.387 34.3393 43.3614C34.5956 43.3284 34.8034 43.3037 34.9627 43.2872C35.1238 43.2689 35.241 43.2387 35.3142 43.1966C35.3893 43.1545 35.4268 43.0812 35.4268 42.9769V42.9549C35.4268 42.684 35.3527 42.4734 35.2044 42.3233C35.0579 42.1732 34.8355 42.0981 34.5371 42.0981C34.2276 42.0981 33.9851 42.1658 33.8093 42.3013C33.6335 42.4368 33.51 42.5814 33.4386 42.7352L32.8234 42.5155C32.9333 42.2592 33.0797 42.0597 33.2628 41.9168C33.4477 41.7722 33.6491 41.6715 33.867 41.6148C34.0867 41.5562 34.3027 41.5269 34.5151 41.5269C34.6506 41.5269 34.8062 41.5434 34.9819 41.5763C35.1595 41.6074 35.3307 41.6724 35.4955 41.7713C35.6621 41.8702 35.8003 42.0194 35.9102 42.2189C36.02 42.4185 36.0749 42.6858 36.0749 43.0208V45.8H35.4268V45.2288H35.3939C35.3499 45.3203 35.2767 45.4183 35.1742 45.5226C35.0716 45.627 34.9353 45.7158 34.765 45.789C34.5947 45.8622 34.3869 45.8989 34.1416 45.8989ZM34.2405 45.3167C34.4968 45.3167 34.7128 45.2663 34.8886 45.1656C35.0662 45.0649 35.1998 44.9349 35.2895 44.7757C35.3811 44.6164 35.4268 44.4489 35.4268 44.2731V43.6799C35.3994 43.7129 35.3389 43.7431 35.2456 43.7705C35.154 43.7962 35.0478 43.8191 34.927 43.8392C34.808 43.8575 34.6918 43.874 34.5782 43.8886C34.4666 43.9014 34.3759 43.9124 34.3064 43.9216C34.1379 43.9436 33.9805 43.9793 33.834 44.0287C33.6894 44.0763 33.5722 44.1486 33.4825 44.2456C33.3946 44.3408 33.3507 44.4708 33.3507 44.6356C33.3507 44.8608 33.434 45.0311 33.6006 45.1464C33.769 45.2599 33.9823 45.3167 34.2405 45.3167Z" fill="white"/>
<path d="M37.906 43.2625V45.8H37.2579V41.5818H37.884V42.2409H37.9389C38.0378 42.0267 38.1879 41.8546 38.3893 41.7246C38.5907 41.5928 38.8507 41.5269 39.1692 41.5269C39.4548 41.5269 39.7047 41.5855 39.9189 41.7026C40.1331 41.818 40.2997 41.9937 40.4188 42.2299C40.5378 42.4643 40.5973 42.7609 40.5973 43.1197V45.8H39.9492V43.1636C39.9492 42.8323 39.8631 42.5741 39.691 42.3892C39.5189 42.2025 39.2827 42.1091 38.9825 42.1091C38.7756 42.1091 38.5907 42.1539 38.4277 42.2436C38.2666 42.3334 38.1394 42.4643 38.046 42.6364C37.9527 42.8085 37.906 43.0172 37.906 43.2625Z" fill="white"/>
<path d="M44.7694 42.5265L44.1872 42.6913C44.1506 42.5942 44.0966 42.5 44.0252 42.4084C43.9556 42.315 43.8604 42.2382 43.7396 42.1777C43.6188 42.1173 43.4641 42.0871 43.2755 42.0871C43.0174 42.0871 42.8022 42.1466 42.6301 42.2656C42.4599 42.3828 42.3747 42.532 42.3747 42.7132C42.3747 42.8744 42.4333 43.0016 42.5505 43.095C42.6677 43.1883 42.8508 43.2662 43.0997 43.3284L43.7259 43.4822C44.103 43.5737 44.3841 43.7138 44.569 43.9024C44.7539 44.0891 44.8463 44.3299 44.8463 44.6246C44.8463 44.8663 44.7768 45.0823 44.6376 45.2727C44.5003 45.4631 44.3081 45.6132 44.0609 45.7231C43.8138 45.8329 43.5263 45.8879 43.1986 45.8879C42.7684 45.8879 42.4123 45.7945 42.1303 45.6078C41.8484 45.421 41.6699 45.1482 41.5948 44.7894L42.21 44.6356C42.2686 44.8626 42.3793 45.0329 42.5423 45.1464C42.707 45.2599 42.9222 45.3167 43.1876 45.3167C43.4897 45.3167 43.7295 45.2526 43.9071 45.1244C44.0866 44.9944 44.1763 44.8388 44.1763 44.6576C44.1763 44.5111 44.125 44.3884 44.0225 44.2896C43.9199 44.1889 43.7625 44.1138 43.5501 44.0644L42.8471 43.8996C42.4608 43.8081 42.177 43.6662 41.9958 43.474C41.8163 43.2799 41.7266 43.0373 41.7266 42.7462C41.7266 42.5082 41.7935 42.2977 41.9271 42.1146C42.0626 41.9315 42.2466 41.7878 42.4791 41.6834C42.7134 41.5791 42.9789 41.5269 43.2755 41.5269C43.6929 41.5269 44.0206 41.6184 44.2586 41.8015C44.4985 41.9846 44.6687 42.2263 44.7694 42.5265Z" fill="white"/>
<path d="M45.8219 47.3818V41.5818H46.4481V42.2519H46.525C46.5726 42.1787 46.6385 42.0853 46.7227 41.9718C46.8087 41.8564 46.9314 41.7539 47.0907 41.6642C47.2518 41.5727 47.4696 41.5269 47.7443 41.5269C48.0994 41.5269 48.4125 41.6157 48.6835 41.7933C48.9544 41.9709 49.1659 42.2226 49.3179 42.5485C49.4698 42.8744 49.5458 43.2588 49.5458 43.7019C49.5458 44.1486 49.4698 44.5358 49.3179 44.8635C49.1659 45.1894 48.9553 45.4421 48.6862 45.6215C48.4171 45.7991 48.1068 45.8879 47.7553 45.8879C47.4843 45.8879 47.2673 45.843 47.1044 45.7533C46.9415 45.6618 46.8161 45.5583 46.7282 45.443C46.6403 45.3258 46.5726 45.2288 46.525 45.1519H46.47V47.3818H45.8219ZM46.459 43.6909C46.459 44.0095 46.5057 44.2905 46.5991 44.534C46.6925 44.7757 46.8289 44.9651 47.0083 45.1025C47.1877 45.2379 47.4074 45.3057 47.6674 45.3057C47.9383 45.3057 48.1644 45.2343 48.3457 45.0915C48.5288 44.9468 48.6661 44.7528 48.7576 44.5093C48.851 44.2639 48.8977 43.9912 48.8977 43.6909C48.8977 43.3943 48.8519 43.127 48.7604 42.889C48.6707 42.6492 48.5343 42.4597 48.3512 42.3205C48.1699 42.1796 47.942 42.1091 47.6674 42.1091C47.4037 42.1091 47.1822 42.1759 47.0028 42.3096C46.8234 42.4414 46.6879 42.6263 46.5964 42.8643C46.5048 43.1005 46.459 43.376 46.459 43.6909Z" fill="white"/>
<path d="M52.2481 45.8879C51.8673 45.8879 51.5331 45.7972 51.2457 45.616C50.9601 45.4347 50.7367 45.1812 50.5756 44.8553C50.4163 44.5294 50.3367 44.1486 50.3367 43.7129C50.3367 43.2735 50.4163 42.8899 50.5756 42.5622C50.7367 42.2345 50.9601 41.98 51.2457 41.7988C51.5331 41.6175 51.8673 41.5269 52.2481 41.5269C52.6289 41.5269 52.9621 41.6175 53.2477 41.7988C53.5351 41.98 53.7585 42.2345 53.9178 42.5622C54.0789 42.8899 54.1594 43.2735 54.1594 43.7129C54.1594 44.1486 54.0789 44.5294 53.9178 44.8553C53.7585 45.1812 53.5351 45.4347 53.2477 45.616C52.9621 45.7972 52.6289 45.8879 52.2481 45.8879ZM52.2481 45.3057C52.5373 45.3057 52.7753 45.2315 52.9621 45.0832C53.1488 44.9349 53.287 44.74 53.3768 44.4983C53.4665 44.2566 53.5113 43.9948 53.5113 43.7129C53.5113 43.4309 53.4665 43.1682 53.3768 42.9247C53.287 42.6812 53.1488 42.4844 52.9621 42.3343C52.7753 42.1841 52.5373 42.1091 52.2481 42.1091C51.9588 42.1091 51.7208 42.1841 51.534 42.3343C51.3473 42.4844 51.2091 42.6812 51.1194 42.9247C51.0297 43.1682 50.9848 43.4309 50.9848 43.7129C50.9848 43.9948 51.0297 44.2566 51.1194 44.4983C51.2091 44.74 51.3473 44.9349 51.534 45.0832C51.7208 45.2315 51.9588 45.3057 52.2481 45.3057Z" fill="white"/>
<path d="M55.1487 45.8V41.5818H55.7749V42.2189H55.8188C55.8957 42.0102 56.0349 41.8409 56.2362 41.7109C56.4376 41.5809 56.6647 41.5159 56.9173 41.5159C56.9649 41.5159 57.0244 41.5168 57.0958 41.5186C57.1672 41.5205 57.2212 41.5232 57.2578 41.5269V42.186C57.2359 42.1805 57.1855 42.1722 57.1068 42.1613C57.0299 42.1484 56.9484 42.142 56.8624 42.142C56.6573 42.142 56.4742 42.1851 56.3131 42.2711C56.1539 42.3553 56.0275 42.4725 55.9342 42.6226C55.8426 42.7709 55.7969 42.9403 55.7969 43.1307V45.8H55.1487Z" fill="white"/>
<path d="M60.1249 41.5818V42.1311H57.9389V41.5818H60.1249ZM58.576 40.5712H59.2241V44.5917C59.2241 44.7747 59.2507 44.9121 59.3038 45.0036C59.3587 45.0933 59.4283 45.1537 59.5125 45.1848C59.5985 45.2141 59.6892 45.2288 59.7844 45.2288C59.8558 45.2288 59.9143 45.2251 59.9601 45.2178C60.0059 45.2086 60.0425 45.2013 60.07 45.1958L60.2018 45.778C60.1578 45.7945 60.0965 45.811 60.0178 45.8275C59.9391 45.8458 59.8393 45.8549 59.7184 45.8549C59.5354 45.8549 59.3559 45.8156 59.1802 45.7368C59.0063 45.6581 58.8616 45.5382 58.7463 45.3771C58.6328 45.216 58.576 45.0127 58.576 44.7674V40.5712Z" fill="white"/>
<path d="M64.5161 45.8989C64.2488 45.8989 64.0062 45.8485 63.7883 45.7478C63.5705 45.6453 63.3974 45.4979 63.2693 45.3057C63.1411 45.1116 63.0771 44.8773 63.0771 44.6026C63.0771 44.361 63.1247 44.1651 63.2199 44.015C63.3151 43.863 63.4423 43.744 63.6016 43.6579C63.7609 43.5719 63.9366 43.5078 64.1289 43.4657C64.3229 43.4218 64.5179 43.387 64.7138 43.3614C64.9701 43.3284 65.1779 43.3037 65.3372 43.2872C65.4983 43.2689 65.6155 43.2387 65.6887 43.1966C65.7638 43.1545 65.8013 43.0812 65.8013 42.9769V42.9549C65.8013 42.684 65.7272 42.4734 65.5789 42.3233C65.4324 42.1732 65.21 42.0981 64.9115 42.0981C64.6021 42.0981 64.3595 42.1658 64.1838 42.3013C64.008 42.4368 63.8844 42.5814 63.813 42.7352L63.1979 42.5155C63.3077 42.2592 63.4542 42.0597 63.6373 41.9168C63.8222 41.7722 64.0236 41.6715 64.2415 41.6148C64.4612 41.5562 64.6772 41.5269 64.8896 41.5269C65.025 41.5269 65.1807 41.5434 65.3564 41.5763C65.534 41.6074 65.7052 41.6724 65.87 41.7713C66.0366 41.8702 66.1748 42.0194 66.2846 42.2189C66.3945 42.4185 66.4494 42.6858 66.4494 43.0208V45.8H65.8013V45.2288H65.7683C65.7244 45.3203 65.6512 45.4183 65.5487 45.5226C65.4461 45.627 65.3097 45.7158 65.1395 45.789C64.9692 45.8622 64.7614 45.8989 64.5161 45.8989ZM64.6149 45.3167C64.8713 45.3167 65.0873 45.2663 65.263 45.1656C65.4406 45.0649 65.5743 44.9349 65.664 44.7757C65.7555 44.6164 65.8013 44.4489 65.8013 44.2731V43.6799C65.7738 43.7129 65.7134 43.7431 65.6201 43.7705C65.5285 43.7962 65.4223 43.8191 65.3015 43.8392C65.1825 43.8575 65.0662 43.874 64.9527 43.8886C64.841 43.9014 64.7504 43.9124 64.6808 43.9216C64.5124 43.9436 64.355 43.9793 64.2085 44.0287C64.0639 44.0763 63.9467 44.1486 63.857 44.2456C63.7691 44.3408 63.7252 44.4708 63.7252 44.6356C63.7252 44.8608 63.8085 45.0311 63.9751 45.1464C64.1435 45.2599 64.3568 45.3167 64.6149 45.3167Z" fill="white"/>
<path d="M68.2804 43.2625V45.8H67.6323V41.5818H68.2585V42.2409H68.3134C68.4123 42.0267 68.5624 41.8546 68.7638 41.7246C68.9652 41.5928 69.2252 41.5269 69.5437 41.5269C69.8293 41.5269 70.0792 41.5855 70.2934 41.7026C70.5076 41.818 70.6742 41.9937 70.7932 42.2299C70.9122 42.4643 70.9717 42.7609 70.9717 43.1197V45.8H70.3236V43.1636C70.3236 42.8323 70.2376 42.5741 70.0655 42.3892C69.8934 42.2025 69.6572 42.1091 69.357 42.1091C69.1501 42.1091 68.9652 42.1539 68.8022 42.2436C68.6411 42.3334 68.5139 42.4643 68.4205 42.6364C68.3271 42.8085 68.2804 43.0172 68.2804 43.2625Z" fill="white"/>
<path d="M73.7488 45.8879C73.3973 45.8879 73.087 45.7991 72.8179 45.6215C72.5488 45.4421 72.3382 45.1894 72.1862 44.8635C72.0343 44.5358 71.9583 44.1486 71.9583 43.7019C71.9583 43.2588 72.0343 42.8744 72.1862 42.5485C72.3382 42.2226 72.5497 41.9709 72.8206 41.7933C73.0916 41.6157 73.4047 41.5269 73.7598 41.5269C74.0344 41.5269 74.2514 41.5727 74.4107 41.6642C74.5718 41.7539 74.6945 41.8564 74.7787 41.9718C74.8647 42.0853 74.9315 42.1787 74.9791 42.2519H75.0341V40.1757H75.6822V45.8H75.056V45.1519H74.9791C74.9315 45.2288 74.8638 45.3258 74.7759 45.443C74.688 45.5583 74.5626 45.6618 74.3997 45.7533C74.2368 45.843 74.0198 45.8879 73.7488 45.8879ZM73.8367 45.3057C74.0967 45.3057 74.3164 45.2379 74.4958 45.1025C74.6752 44.9651 74.8116 44.7757 74.905 44.534C74.9984 44.2905 75.0451 44.0095 75.0451 43.6909C75.0451 43.376 74.9993 43.1005 74.9077 42.8643C74.8162 42.6263 74.6807 42.4414 74.5013 42.3096C74.3219 42.1759 74.1004 42.1091 73.8367 42.1091C73.5621 42.1091 73.3333 42.1796 73.1502 42.3205C72.9689 42.4597 72.8325 42.6492 72.741 42.889C72.6513 43.127 72.6064 43.3943 72.6064 43.6909C72.6064 43.9912 72.6522 44.2639 72.7437 44.5093C72.8371 44.7528 72.9744 44.9468 73.1557 45.0915C73.3387 45.2343 73.5658 45.3057 73.8367 45.3057Z" fill="white"/>
<path d="M79.222 45.8V40.1757H79.9031V45.1958H82.5175V45.8H79.222Z" fill="white"/>
<path d="M85.1978 45.8879C84.817 45.8879 84.4829 45.7972 84.1954 45.616C83.9098 45.4347 83.6865 45.1812 83.5254 44.8553C83.3661 44.5294 83.2864 44.1486 83.2864 43.7129C83.2864 43.2735 83.3661 42.8899 83.5254 42.5622C83.6865 42.2345 83.9098 41.98 84.1954 41.7988C84.4829 41.6175 84.817 41.5269 85.1978 41.5269C85.5786 41.5269 85.9118 41.6175 86.1974 41.7988C86.4849 41.98 86.7082 42.2345 86.8675 42.5622C87.0286 42.8899 87.1092 43.2735 87.1092 43.7129C87.1092 44.1486 87.0286 44.5294 86.8675 44.8553C86.7082 45.1812 86.4849 45.4347 86.1974 45.616C85.9118 45.7972 85.5786 45.8879 85.1978 45.8879ZM85.1978 45.3057C85.4871 45.3057 85.7251 45.2315 85.9118 45.0832C86.0986 44.9349 86.2368 44.74 86.3265 44.4983C86.4162 44.2566 86.4611 43.9948 86.4611 43.7129C86.4611 43.4309 86.4162 43.1682 86.3265 42.9247C86.2368 42.6812 86.0986 42.4844 85.9118 42.3343C85.7251 42.1841 85.4871 42.1091 85.1978 42.1091C84.9085 42.1091 84.6705 42.1841 84.4838 42.3343C84.297 42.4844 84.1588 42.6812 84.0691 42.9247C83.9794 43.1682 83.9345 43.4309 83.9345 43.7129C83.9345 43.9948 83.9794 44.2566 84.0691 44.4983C84.1588 44.74 84.297 44.9349 84.4838 45.0832C84.6705 45.2315 84.9085 45.3057 85.1978 45.3057Z" fill="white"/>
<path d="M89.8011 47.4697C89.4881 47.4697 89.2189 47.4294 88.9937 47.3489C88.7686 47.2701 88.5809 47.1658 88.4308 47.0358C88.2825 46.9076 88.1644 46.7703 88.0765 46.6239L88.5928 46.2614C88.6514 46.3382 88.7255 46.4261 88.8152 46.525C88.905 46.6257 89.0276 46.7126 89.1832 46.7859C89.3407 46.8609 89.5467 46.8985 89.8011 46.8985C90.1417 46.8985 90.4227 46.8161 90.6442 46.6513C90.8657 46.4865 90.9765 46.2284 90.9765 45.8769V45.0201H90.9216C90.874 45.097 90.8062 45.1922 90.7184 45.3057C90.6323 45.4174 90.5078 45.5171 90.3449 45.605C90.1838 45.6911 89.9659 45.7341 89.6913 45.7341C89.3508 45.7341 89.045 45.6535 88.774 45.4924C88.5049 45.3313 88.2916 45.097 88.1342 44.7894C87.9786 44.4818 87.9008 44.1083 87.9008 43.6689C87.9008 43.2369 87.9767 42.8606 88.1287 42.5402C88.2807 42.218 88.4921 41.969 88.7631 41.7933C89.034 41.6157 89.3471 41.5269 89.7023 41.5269C89.9769 41.5269 90.1948 41.5727 90.3559 41.6642C90.5188 41.7539 90.6433 41.8564 90.7294 41.9718C90.8172 42.0853 90.885 42.1787 90.9326 42.2519H90.9985V41.5818H91.6246V45.9208C91.6246 46.2833 91.5422 46.5781 91.3775 46.8051C91.2145 47.034 90.9948 47.2015 90.7184 47.3077C90.4437 47.4157 90.138 47.4697 89.8011 47.4697ZM89.7792 45.1519C90.0391 45.1519 90.2588 45.0924 90.4383 44.9734C90.6177 44.8544 90.7541 44.6832 90.8474 44.4598C90.9408 44.2365 90.9875 43.9692 90.9875 43.6579C90.9875 43.354 90.9417 43.0858 90.8502 42.8533C90.7587 42.6208 90.6232 42.4386 90.4437 42.3068C90.2643 42.175 90.0428 42.1091 89.7792 42.1091C89.5045 42.1091 89.2757 42.1787 89.0926 42.3178C88.9114 42.4569 88.775 42.6437 88.6834 42.878C88.5937 43.1124 88.5489 43.3723 88.5489 43.6579C88.5489 43.9509 88.5946 44.2099 88.6862 44.4351C88.7795 44.6585 88.9169 44.8342 89.0981 44.9624C89.2812 45.0887 89.5082 45.1519 89.7792 45.1519Z" fill="white"/>
<path d="M92.811 45.8V41.5818H93.4591V45.8H92.811ZM93.1405 40.8788C93.0142 40.8788 92.9053 40.8358 92.8137 40.7497C92.724 40.6637 92.6792 40.5602 92.6792 40.4394C92.6792 40.3186 92.724 40.2151 92.8137 40.1291C92.9053 40.043 93.0142 40 93.1405 40C93.2669 40 93.3749 40.043 93.4646 40.1291C93.5561 40.2151 93.6019 40.3186 93.6019 40.4394C93.6019 40.5602 93.5561 40.6637 93.4646 40.7497C93.3749 40.8358 93.2669 40.8788 93.1405 40.8788Z" fill="white"/>
<path d="M97.634 42.5265L97.0518 42.6913C97.0152 42.5942 96.9612 42.5 96.8898 42.4084C96.8202 42.315 96.725 42.2382 96.6042 42.1777C96.4834 42.1173 96.3287 42.0871 96.1401 42.0871C95.8819 42.0871 95.6668 42.1466 95.4947 42.2656C95.3245 42.3828 95.2393 42.532 95.2393 42.7132C95.2393 42.8744 95.2979 43.0016 95.4151 43.095C95.5323 43.1883 95.7153 43.2662 95.9643 43.3284L96.5905 43.4822C96.9676 43.5737 97.2486 43.7138 97.4335 43.9024C97.6185 44.0891 97.7109 44.3299 97.7109 44.6246C97.7109 44.8663 97.6413 45.0823 97.5022 45.2727C97.3649 45.4631 97.1727 45.6132 96.9255 45.7231C96.6783 45.8329 96.3909 45.8879 96.0632 45.8879C95.6329 45.8879 95.2769 45.7945 94.9949 45.6078C94.713 45.421 94.5345 45.1482 94.4594 44.7894L95.0745 44.6356C95.1331 44.8626 95.2439 45.0329 95.4068 45.1464C95.5716 45.2599 95.7867 45.3167 96.0522 45.3167C96.3543 45.3167 96.5941 45.2526 96.7717 45.1244C96.9511 44.9944 97.0408 44.8388 97.0408 44.6576C97.0408 44.5111 96.9896 44.3884 96.887 44.2896C96.7845 44.1889 96.6271 44.1138 96.4147 44.0644L95.7117 43.8996C95.3254 43.8081 95.0416 43.6662 94.8603 43.474C94.6809 43.2799 94.5912 43.0373 94.5912 42.7462C94.5912 42.5082 94.658 42.2977 94.7917 42.1146C94.9272 41.9315 95.1112 41.7878 95.3437 41.6834C95.578 41.5791 95.8435 41.5269 96.1401 41.5269C96.5575 41.5269 96.8852 41.6184 97.1232 41.8015C97.3631 41.9846 97.5333 42.2263 97.634 42.5265Z" fill="white"/>
<path d="M100.521 41.5818V42.1311H98.335V41.5818H100.521ZM98.9721 40.5712H99.6202V44.5917C99.6202 44.7747 99.6468 44.9121 99.6999 45.0036C99.7548 45.0933 99.8244 45.1537 99.9086 45.1848C99.9946 45.2141 100.085 45.2288 100.18 45.2288C100.252 45.2288 100.31 45.2251 100.356 45.2178C100.402 45.2086 100.439 45.2013 100.466 45.1958L100.598 45.778C100.554 45.7945 100.493 45.811 100.414 45.8275C100.335 45.8458 100.235 45.8549 100.115 45.8549C99.9315 45.8549 99.752 45.8156 99.5763 45.7368C99.4024 45.6581 99.2577 45.5382 99.1424 45.3771C99.0289 45.216 98.9721 45.0127 98.9721 44.7674V40.5712Z" fill="white"/>
<path d="M101.496 45.8V41.5818H102.144V45.8H101.496ZM101.825 40.8788C101.699 40.8788 101.59 40.8358 101.499 40.7497C101.409 40.6637 101.364 40.5602 101.364 40.4394C101.364 40.3186 101.409 40.2151 101.499 40.1291C101.59 40.043 101.699 40 101.825 40C101.952 40 102.06 40.043 102.149 40.1291C102.241 40.2151 102.287 40.3186 102.287 40.4394C102.287 40.5602 102.241 40.6637 102.149 40.7497C102.06 40.8358 101.952 40.8788 101.825 40.8788Z" fill="white"/>
<path d="M105.045 45.8879C104.649 45.8879 104.309 45.7945 104.023 45.6078C103.737 45.421 103.518 45.1638 103.364 44.8361C103.21 44.5084 103.133 44.134 103.133 43.7129C103.133 43.2845 103.212 42.9064 103.369 42.5787C103.529 42.2491 103.75 41.9919 104.034 41.807C104.32 41.6203 104.653 41.5269 105.034 41.5269C105.33 41.5269 105.598 41.5818 105.836 41.6917C106.074 41.8015 106.269 41.9553 106.421 42.153C106.572 42.3507 106.667 42.5814 106.703 42.8451H106.055C106.006 42.6528 105.896 42.4826 105.726 42.3343C105.557 42.1841 105.33 42.1091 105.045 42.1091C104.792 42.1091 104.57 42.175 104.38 42.3068C104.192 42.4368 104.044 42.6208 103.938 42.8588C103.834 43.095 103.781 43.3723 103.781 43.6909C103.781 44.0168 103.833 44.3006 103.935 44.5422C104.04 44.7839 104.186 44.9716 104.375 45.1052C104.565 45.2388 104.788 45.3057 105.045 45.3057C105.213 45.3057 105.366 45.2764 105.503 45.2178C105.641 45.1592 105.757 45.075 105.852 44.9651C105.947 44.8553 106.015 44.7235 106.055 44.5697H106.703C106.667 44.8187 106.576 45.043 106.432 45.2425C106.289 45.4402 106.099 45.5977 105.863 45.7149C105.629 45.8302 105.356 45.8879 105.045 45.8879Z" fill="white"/>
<path d="M110.639 42.5265L110.057 42.6913C110.02 42.5942 109.966 42.5 109.894 42.4084C109.825 42.315 109.73 42.2382 109.609 42.1777C109.488 42.1173 109.333 42.0871 109.145 42.0871C108.887 42.0871 108.672 42.1466 108.499 42.2656C108.329 42.3828 108.244 42.532 108.244 42.7132C108.244 42.8744 108.303 43.0016 108.42 43.095C108.537 43.1883 108.72 43.2662 108.969 43.3284L109.595 43.4822C109.972 43.5737 110.253 43.7138 110.438 43.9024C110.623 44.0891 110.716 44.3299 110.716 44.6246C110.716 44.8663 110.646 45.0823 110.507 45.2727C110.37 45.4631 110.177 45.6132 109.93 45.7231C109.683 45.8329 109.396 45.8879 109.068 45.8879C108.638 45.8879 108.282 45.7945 108 45.6078C107.718 45.421 107.539 45.1482 107.464 44.7894L108.079 44.6356C108.138 44.8626 108.249 45.0329 108.412 45.1464C108.576 45.2599 108.791 45.3167 109.057 45.3167C109.359 45.3167 109.599 45.2526 109.776 45.1244C109.956 44.9944 110.046 44.8388 110.046 44.6576C110.046 44.5111 109.994 44.3884 109.892 44.2896C109.789 44.1889 109.632 44.1138 109.419 44.0644L108.716 43.8996C108.33 43.8081 108.046 43.6662 107.865 43.474C107.686 43.2799 107.596 43.0373 107.596 42.7462C107.596 42.5082 107.663 42.2977 107.796 42.1146C107.932 41.9315 108.116 41.7878 108.348 41.6834C108.583 41.5791 108.848 41.5269 109.145 41.5269C109.562 41.5269 109.89 41.6184 110.128 41.8015C110.368 41.9846 110.538 42.2263 110.639 42.5265Z" fill="white"/>
</g>
<defs>
<clipPath id="clip0_2_141">
<rect width="114" height="48" fill="white"/>
</clipPath>
</defs>
</svg>
